# xmcd
#
# Track frame offsets: 
#        150
#        16323
#        31130
#        50561
#        67075
#        90782
#        110487
#        126577
#        141731
#        161053
#        180911
#        198240
#
# Disc length: 2898 seconds
#
# Revision: 0
# Processed by: cddbd v1.5.2PL0 Copyright (c) Steve Scherf et al.
# Submitted via: ExactAudioCopy v1.3
#
DISCID=a50b500c
DTITLE=Chris Kirby - Vampire Hotel
DYEAR=2009
DGENRE=R&B
TTITLE0=Day Job
TTITLE1=Come Clean
TTITLE2=Lift This Fog
TTITLE3=Don't Forget About Me
TTITLE4=Heavy Rain
TTITLE5=See You Again
TTITLE6=Fool No More
TTITLE7=Princess
TTITLE8=Entertainer of the year
TTITLE9=Identity Crisis
TTITLE10=Golden year
TTITLE11=Vampire Hotel
EXTD=
EXTT0=
EXTT1=
EXTT2=
EXTT3=
EXTT4=
EXTT5=
EXTT6=
EXTT7=
EXTT8=
EXTT9=
EXTT10=
EXTT11=
PLAYORDER=
